<?xml version="1.0" standalone="no"?>
<!DOCTYPE svg PUBLIC "-//W3C//DTD SVG 20010904//EN"
 "http://www.w3.org/TR/2001/REC-SVG-20010904/DTD/svg10.dtd">
<svg version="1.0" xmlns="http://www.w3.org/2000/svg"
 width="512.000000pt" height="467.000000pt" viewBox="0 0 512.000000 467.000000"
 preserveAspectRatio="xMidYMid meet">

<g transform="translate(0.000000,467.000000) scale(0.100000,-0.100000)"
fill="#000000" stroke="none">
<path d="M1010 4540 c-455 -81 -758 -337 -855 -721 -41 -167 -47 -293 -43
-984 4 -619 5 -643 27 -740 104 -466 347 -728 765 -828 90 -22 101 -22 828
-18 l738 3 2 -568 3 -568 230 260 c126 142 295 333 375 423 80 91 199 226 265
300 l121 136 299 6 c311 6 352 11 519 60 334 99 577 338 665 652 46 164 51
242 51 927 0 595 -2 654 -20 766 -74 455 -318 757 -701 867 -161 47 -179 47
-1715 46 -1366 -1 -1455 -2 -1554 -19z m2010 -880 c196 -66 347 -224 418 -438
23 -67 26 -94 26 -217 1 -120 -2 -151 -22 -215 -40 -125 -88 -207 -177 -295
-136 -136 -283 -192 -480 -182 -161 9 -294 67 -406 177 -216 214 -269 563
-126 845 86 172 225 286 411 336 96 26 262 21 356 -11z m1402 11 c103 -27 165
-60 239 -128 66 -62 136 -160 122 -172 -4 -5 -56 -33 -115 -64 l-106 -57 -26
44 c-32 55 -96 113 -155 139 -71 33 -179 30 -252 -6 -135 -66 -229 -245 -229
-436 0 -68 30 -192 60 -252 34 -65 114 -144 173 -170 64 -28 182 -31 239 -7
83 36 167 142 183 231 l7 37 -141 0 -142 0 3 108 3 107 283 3 282 2 0 -74 c0
-132 -39 -284 -102 -394 -43 -77 -142 -172 -217 -210 -173 -86 -383 -82 -571
13 -87 44 -200 165 -248 266 -63 129 -76 192 -76 349 0 112 4 148 23 210 64
206 186 354 356 430 117 52 278 64 407 31z m-3636 -22 c95 -13 167 -45 216
-94 110 -111 115 -366 10 -477 -14 -15 -24 -29 -21 -30 2 -2 26 -14 52 -27 96
-49 151 -157 151 -301 0 -102 -13 -152 -57 -216 -44 -66 -105 -110 -190 -136
-66 -21 -92 -22 -322 -23 l-250 0 -3 645 c-1 355 0 651 3 658 6 16 299 17 411
1z m912 -536 l2 -543 180 0 181 0 -3 -112 -3 -113 -307 -3 -308 -2 0 660 0
661 128 -3 127 -3 3 -542z"/>
<path d="M2697 3406 c-101 -42 -163 -104 -213 -211 -77 -168 -35 -375 106
-516 84 -84 127 -104 230 -104 75 0 91 3 137 29 169 93 273 314 234 495 -26
123 -122 251 -226 301 -75 36 -191 39 -268 6z"/>
<path d="M640 3274 l0 -167 54 6 c108 11 149 55 149 162 0 109 -51 165 -150
165 l-53 0 0 -166z"/>
<path d="M640 2736 l0 -176 83 0 c147 0 211 53 211 175 0 120 -56 167 -206
173 l-88 4 0 -176z"/>
</g>
</svg>
